<?xml version="1.0" standalone="no"?>
<!DOCTYPE svg PUBLIC "-//W3C//DTD SVG 20010904//EN"
 "http://www.w3.org/TR/2001/REC-SVG-20010904/DTD/svg10.dtd">
<svg version="1.0" xmlns="http://www.w3.org/2000/svg"
 width="1012.000000pt" height="1012.000000pt" viewBox="0 0 1012.000000 1012.000000"
 preserveAspectRatio="xMidYMid meet">
<metadata>
Created by potrace 1.11, written by Peter Selinger 2001-2013
</metadata>
<g transform="translate(0.000000,1012.000000) scale(0.100000,-0.100000)"
fill="#000000" stroke="none">
<path d="M4749 7379 c-5 -3 -10 -44 -10 -90 0 -46 0 -91 0 -99 -1 -8 -1 -62 0
-120 0 -58 0 -112 0 -120 -1 -8 -1 -42 0 -75 2 -79 3 -276 2 -295 0 -8 0 -62
0 -120 1 -58 1 -112 0 -120 0 -8 0 -44 0 -80 1 -36 1 -72 0 -80 0 -8 0 -62 0
-120 1 -58 1 -112 0 -120 -3 -57 1 -225 5 -229 8 -9 85 -7 91 1 4 7 7 1215 4
1599 l-1 67 -40 4 c-23 2 -45 1 -51 -3z"/>
<path d="M5247 7223 c-2 -5 -3 -366 -3 -803 l1 -795 173 -2 172 -2 0 490 c0
319 3 489 10 489 6 0 10 -3 10 -7 0 -5 10 -20 23 -35 12 -15 35 -44 52 -65 16
-21 92 -117 169 -213 76 -96 150 -190 165 -209 14 -19 31 -39 36 -45 6 -6 24
-29 40 -51 17 -22 38 -49 47 -60 9 -11 57 -72 107 -135 50 -63 100 -125 110
-137 17 -20 27 -21 162 -21 79 0 149 -1 154 -2 6 -1 15 -1 20 0 6 1 34 2 63 1
l53 -2 -18 21 c-10 12 -25 30 -33 40 -8 9 -26 32 -40 50 -52 69 -115 145 -122
148 -4 2 -8 10 -8 17 0 7 -3 15 -8 17 -4 2 -52 59 -107 128 -55 69 -104 130
-110 136 -5 7 -19 24 -29 39 -11 14 -27 34 -35 44 -9 10 -27 33 -41 51 -14 19
-36 47 -50 64 -33 41 -34 42 -144 181 -53 66 -99 125 -104 130 -4 6 -36 46
-71 90 -35 44 -67 82 -72 83 -5 2 -9 10 -9 17 0 7 -4 15 -8 17 -5 2 -33 35
-62 73 -30 39 -59 75 -64 81 -6 6 -22 26 -36 44 -14 18 -44 57 -68 87 l-43 53
-139 0 c-76 0 -140 -3 -143 -7z"/>
<path d="M7637 7223 c-2 -5 -4 -366 -3 -803 l1 -795 170 0 169 0 0 800 0 800
-166 3 c-92 1 -169 -1 -171 -5z"/>
<path d="M1556 7211 c-2 -4 -4 -365 -4 -803 l0 -798 173 0 172 0 1 473 c1 563
-1 507 14 507 6 0 9 -3 5 -6 -5 -5 12 -29 48 -68 6 -6 42 -51 80 -101 38 -49
71 -92 74 -95 4 -3 25 -30 49 -60 23 -30 45 -59 50 -65 4 -5 81 -101 170 -213
89 -112 162 -206 162 -209 0 -3 8 -13 18 -22 10 -9 39 -44 66 -78 l47 -63 216
0 c202 0 215 1 202 17 -24 29 -35 44 -144 183 -59 74 -120 150 -136 168 -16
18 -29 35 -29 38 0 4 -22 32 -50 64 -27 32 -50 60 -50 64 0 3 -13 20 -29 38
-16 18 -92 112 -168 208 -76 96 -142 180 -148 187 -5 6 -20 24 -32 40 -12 15
-31 39 -42 52 -12 13 -21 27 -21 30 0 3 -13 20 -28 36 -15 17 -41 48 -57 70
-17 22 -40 51 -51 65 -12 14 -70 86 -128 160 -166 211 -131 188 -291 187 -75
0 -138 -3 -139 -6z"/>
<path d="M3938 7167 c-2 -27 0 -51 5 -54 4 -2 5 -8 2 -13 -7 -12 -8 -458 -1
-469 3 -4 3 -10 0 -13 -6 -7 -6 -777 1 -788 3 -5 2 -11 -2 -13 -5 -3 -7 -50
-5 -106 l3 -101 172 0 172 0 -2 792 c-1 436 -2 798 -2 803 -1 7 -59 11 -170
11 l-169 0 -4 -49z"/>
<path d="M3629 5570 c-121 -15 -193 -153 -153 -292 15 -51 68 -111 112 -125
34 -12 119 -10 152 4 50 21 98 83 107 138 8 51 3 123 -12 158 -23 55 -76 104
-115 109 -3 0 -14 3 -25 7 -11 4 -41 4 -66 1z m117 -98 c25 -32 35 -81 30
-136 -9 -94 -39 -128 -115 -130 -39 -1 -55 4 -75 23 -27 25 -50 82 -48 116 6
100 35 152 92 164 40 9 95 -9 116 -37z"/>
<path d="M5035 5570 c-55 -8 -109 -43 -136 -88 -18 -28 -23 -55 -25 -114 -3
-95 9 -130 63 -178 46 -40 44 -40 123 -44 97 -5 152 25 148 80 l-2 33 -34 -26
c-26 -19 -47 -26 -90 -28 -92 -3 -132 37 -138 138 -3 71 18 128 55 149 14 8
49 16 76 17 40 2 58 -3 88 -23 21 -14 39 -26 40 -26 2 0 4 16 5 35 2 29 -2 37
-28 50 -16 8 -31 16 -32 16 -2 0 -19 3 -38 7 -19 4 -53 5 -75 2z"/>
<path d="M6581 5568 c-12 -4 -21 -5 -21 -2 0 9 -63 -38 -86 -64 -78 -88 -50
-277 48 -332 46 -26 152 -36 176 -18 6 6 12 8 12 5 0 -3 12 1 27 8 23 12 28
22 30 56 1 37 0 39 -15 26 -50 -43 -138 -56 -190 -28 -36 19 -62 87 -58 152 5
93 42 133 122 138 47 2 124 -23 124 -41 0 -4 4 -8 9 -8 5 0 9 16 9 35 0 24 -6
38 -22 48 -38 25 -128 39 -165 25z"/>
<path d="M1549 5565 c-1 0 -2 -94 -3 -208 l-1 -208 35 3 35 3 -1 148 c0 81 3
144 7 140 7 -8 123 -226 144 -270 8 -18 18 -23 51 -23 25 0 44 5 46 13 4 10 3
377 -1 400 -1 8 -40 5 -56 -5 -6 -4 -10 -65 -10 -151 0 -80 -2 -144 -4 -141
-3 2 -40 71 -82 152 l-77 147 -41 0 c-23 1 -42 1 -42 0z"/>
<path d="M1996 5561 c-2 -3 -3 -97 -3 -208 l0 -202 66 -3 c36 -2 99 -2 139 0
l72 4 -2 29 -2 29 -101 0 -102 0 0 65 0 65 52 -1 c29 -1 57 1 63 5 6 3 13 2
17 -3 3 -6 16 -6 34 0 22 8 28 16 27 34 -1 24 -31 41 -42 24 -3 -5 -10 -6 -16
-3 -6 4 -38 7 -70 6 -32 0 -59 2 -60 6 -1 4 -2 27 -3 53 l-2 45 99 -1 c97 -2
98 -2 98 22 0 12 0 26 0 31 0 8 -259 11 -264 3z"/>
<path d="M2324 5546 c2 -11 9 -41 15 -66 7 -25 13 -53 16 -63 2 -9 11 -45 20
-80 9 -34 18 -66 19 -72 7 -24 18 -72 22 -92 4 -19 11 -23 43 -23 36 0 41 3
50 33 6 17 11 37 12 42 1 6 5 19 9 31 5 11 11 37 14 56 3 19 10 46 15 59 10
28 11 32 11 59 0 11 4 20 9 20 9 0 25 -56 57 -205 22 -98 26 -103 70 -96 l37
6 47 186 c25 102 49 190 53 196 10 17 -20 36 -46 29 -22 -5 -28 -20 -57 -143
-34 -139 -48 -183 -50 -153 -2 20 -5 35 -25 110 -23 86 -21 79 -30 128 -8 44
-17 55 -50 59 -28 4 -43 -8 -49 -37 -13 -57 -49 -206 -54 -220 -7 -19 -9 -27
-12 -42 -2 -13 -16 33 -44 152 -37 151 -34 146 -72 147 -29 1 -33 -2 -30 -21z"/>
<path d="M3077 5562 c-3 -6 -1 -381 2 -408 1 -12 53 -6 61 7 4 5 6 72 5 149
-1 77 2 137 6 132 9 -9 44 -71 87 -157 19 -38 46 -86 58 -106 21 -34 25 -36
61 -30 l38 6 0 205 0 204 -33 2 c-23 1 -32 -3 -33 -15 0 -9 0 -79 0 -155 0
-76 -1 -137 -3 -135 -2 2 -25 45 -52 94 -122 228 -108 210 -153 212 -23 0 -42
-2 -44 -5z"/>
<path d="M3929 5566 c-5 -7 -10 -48 -9 -76 1 -19 2 -104 2 -187 l1 -153 33 0
c38 0 37 -2 35 118 l0 53 51 -5 c58 -7 56 -5 101 -98 31 -65 33 -67 70 -67 20
-1 37 1 37 4 0 12 -64 132 -86 162 -20 26 -21 32 -8 37 8 3 22 22 30 41 25 60
-1 135 -54 157 -20 8 -198 21 -203 14z m183 -86 c13 -16 14 -27 8 -52 -5 -17
-12 -33 -15 -36 -7 -8 -89 -19 -103 -14 -12 4 -17 113 -6 125 14 14 99 -2 116
-23z"/>
<path d="M4309 5562 c-1 -4 -2 -98 -3 -209 l-1 -203 88 0 c113 0 167 14 207
53 40 40 51 67 55 141 5 102 -23 159 -97 197 -31 16 -64 21 -144 24 -57 2
-105 1 -105 -3z m219 -79 c38 -28 56 -70 55 -129 -2 -100 -49 -144 -156 -144
l-53 0 2 148 c1 81 2 148 3 149 0 1 28 0 62 -1 41 -2 69 -9 87 -23z"/>
<path d="M4730 5539 c-1 -16 -1 -85 -1 -154 0 -69 0 -151 1 -183 l0 -58 36 4
c28 3 35 8 31 22 -2 9 0 25 5 34 5 9 5 16 1 16 -10 0 -8 63 2 79 3 6 3 11 -2
11 -4 0 -8 20 -8 45 0 25 4 45 8 45 5 0 5 5 1 11 -10 17 -11 51 -2 77 5 13 4
22 -3 22 -6 0 -7 5 -4 10 13 21 -5 45 -35 46 -27 2 -30 -2 -30 -27z"/>
<path d="M5453 5359 l0 -209 34 0 c36 0 34 -6 37 97 0 34 3 64 6 67 3 3 43
-33 89 -79 80 -82 84 -85 129 -85 25 0 43 2 41 4 -2 3 -51 53 -108 111 l-105
106 97 91 c53 50 97 94 97 98 0 5 -18 8 -40 7 -34 -2 -50 -13 -120 -77 -45
-41 -83 -76 -84 -78 -2 -1 -3 29 -2 68 2 76 -4 88 -45 88 l-26 0 0 -209z"/>
<path d="M5819 5567 c-1 -1 -2 -95 -3 -209 l-2 -208 32 0 c22 0 33 5 36 18 3
14 3 336 -1 383 -1 11 -11 16 -31 17 -16 0 -31 0 -31 -1z"/>
<path d="M6086 5560 c-1 -3 -1 -11 0 -17 1 -7 2 -19 3 -26 1 -9 20 -13 69 -13
l67 1 2 -155 c1 -85 2 -165 2 -177 1 -19 7 -23 35 -23 l34 0 0 148 c0 81 1
161 1 177 l1 31 68 -1 67 0 0 30 0 30 -173 0 c-95 1 -175 -2 -176 -5z"/>
<path d="M6842 5556 c-6 -8 -9 -328 -3 -394 1 -9 12 -12 34 -10 l32 3 0 92 0
93 56 -1 c31 -1 61 1 67 5 6 3 14 2 17 -4 5 -8 11 -8 19 -1 21 18 26 1 26 -96
l0 -93 34 0 34 0 -1 180 c-1 99 1 180 5 180 3 0 3 12 -1 27 -6 22 -13 28 -39
29 -31 1 -32 0 -33 -45 -1 -25 0 -62 1 -82 l1 -36 -90 0 c-77 0 -91 2 -92 16
-1 9 -1 44 -1 79 0 34 -3 63 -7 63 -30 6 -52 4 -59 -5z"/>
<path d="M7248 5433 c-2 -73 -1 -133 2 -133 3 0 4 -33 2 -74 l-4 -75 110 -3
c145 -4 164 0 169 35 l4 27 -105 0 -104 0 0 70 c0 55 3 68 13 62 7 -4 49 -6
93 -4 67 3 81 6 85 22 9 36 -8 44 -100 44 l-88 1 0 50 0 50 95 0 95 0 3 30 3
31 -135 0 -135 0 -3 -133z"/>
<path d="M7600 5554 c-1 -8 -1 -48 -1 -89 0 -329 -1 -312 26 -317 14 -3 29 0
35 7 5 6 9 73 9 149 -1 76 1 139 3 141 2 3 26 -39 54 -93 27 -53 51 -99 54
-102 3 -3 16 -26 29 -52 23 -46 25 -48 67 -48 46 0 58 8 44 30 -4 7 -5 23 0
34 4 12 4 30 0 41 -4 11 -4 34 1 52 4 18 4 35 0 38 -9 5 -8 42 2 51 3 4 3 12
0 17 -11 17 -9 127 2 127 24 0 -20 25 -45 26 l-30 0 -1 -155 0 -156 -27 53
c-68 132 -125 238 -133 247 -16 16 -89 16 -89 -1z"/>
<path d="M6448 5036 c3 -6 13 -19 23 -31 9 -11 79 -99 155 -195 76 -96 141
-177 144 -180 3 -3 18 -23 35 -45 16 -22 31 -42 35 -45 3 -3 19 -23 35 -45 16
-22 37 -49 47 -60 17 -20 126 -158 183 -231 17 -21 60 -75 98 -121 37 -46 67
-87 67 -92 0 -5 4 -11 9 -13 5 -1 32 -32 60 -68 61 -78 48 -62 151 -191 47
-58 96 -121 110 -139 14 -18 46 -59 72 -91 25 -32 53 -68 62 -80 14 -21 23
-22 148 -24 73 0 138 1 145 3 8 3 11 208 11 828 1 453 -2 824 -6 825 -4 1 -78
2 -166 3 -142 2 -159 0 -165 -16 -3 -9 -6 -243 -5 -519 l1 -503 -24 30 c-13
16 -29 36 -36 44 -12 14 -42 52 -95 119 -15 19 -83 105 -152 191 -69 86 -136
172 -150 190 -29 39 -72 93 -80 100 -3 3 -37 46 -75 95 -38 50 -77 99 -87 110
-9 11 -41 51 -71 90 l-54 70 -216 0 c-137 0 -213 -3 -209 -9z"/>
<path d="M2792 5032 l-43 -3 33 -42 c18 -23 35 -44 38 -47 15 -14 90 -109 90
-114 0 -3 11 -18 25 -33 13 -16 74 -91 135 -168 61 -77 116 -147 123 -155 7
-8 22 -28 35 -45 24 -31 30 -38 135 -170 35 -44 101 -127 147 -185 46 -58 87
-106 92 -108 4 -2 8 -8 8 -13 0 -6 21 -36 48 -67 26 -32 61 -76 78 -98 208
-262 319 -400 325 -404 7 -5 261 -5 279 -1 3 0 6 372 6 826 l0 825 -33 1 c-18
0 -62 0 -98 0 -36 0 -98 0 -138 0 l-72 -1 0 -515 c0 -283 -2 -515 -5 -515 -3
0 -36 41 -75 91 -38 50 -78 100 -89 112 -10 12 -30 38 -45 57 -14 19 -30 40
-36 46 -5 6 -19 23 -30 38 -11 16 -25 33 -30 40 -6 6 -89 110 -185 231 -95
121 -182 228 -192 238 -10 10 -18 21 -18 25 0 4 -18 27 -40 52 -23 25 -48 57
-57 73 -15 24 -24 27 -68 27 -27 1 -106 2 -175 3 -69 1 -144 1 -168 -1z"/>
<path d="M5236 5031 c-1 -3 -2 -375 -2 -826 l1 -820 45 -5 c25 -3 54 -3 66 1
11 4 27 4 34 -1 7 -5 24 -4 36 0 14 6 26 5 29 -1 4 -5 11 -6 18 -2 6 3 35 5
64 4 52 -2 53 -2 54 26 0 39 0 1538 0 1589 l-1 41 -170 0 c-94 0 -172 -3 -174
-6z"/>
<path d="M1554 4203 l1 -828 170 0 170 0 0 825 0 825 -171 3 -171 2 1 -827z"/>
<path d="M4741 5013 c0 -10 0 -434 -1 -943 -1 -509 -1 -931 -1 -937 1 -9 18
-13 51 -13 l50 0 0 953 0 954 -49 2 c-42 1 -50 -2 -50 -16z"/>
</g>
</svg>
