<svg id="Layer_1" data-name="Layer 1" xmlns="http://www.w3.org/2000/svg" viewBox="0 0 450 450"><defs><style>.cls-1{fill:#ec6a00;}.cls-2{font-size:27.55px;fill:#1d5d00;stroke-width:0.75px;font-family:Montserrat-Regular, Montserrat;}.cls-2,.cls-5{stroke:#1d5d00;stroke-miterlimit:10;}.cls-3{letter-spacing:-0.01em;}.cls-4{letter-spacing:-0.01em;}.cls-5{fill:none;stroke-width:5px;}</style></defs><title>Artboard 3 copy</title><rect class="cls-1" x="49.64" y="226.45" width="17.25" height="82.85"/><polygon class="cls-1" points="172.26 278.52 130.91 226.45 109.41 226.45 175.05 309.3 189.28 309.3 189.28 226.45 172.26 226.45 172.26 278.52"/><polygon class="cls-1" points="63.86 117.19 49.64 117.19 49.64 197.56 66.89 197.56 66.89 147.97 106.17 197.56 127.67 197.56 63.86 117.19"/><rect class="cls-1" x="169.02" y="117.19" width="17.02" height="80.36"/><text class="cls-2" transform="translate(46.93 220.17)">N<tspan class="cls-3" x="22.4" y="0">E</tspan><tspan x="40.55" y="0">W NORDIC KI</tspan><tspan class="cls-4" x="229.79" y="0">T</tspan><tspan x="245.33" y="0">CHEN</tspan></text><line class="cls-5" x1="217.54" y1="108.99" x2="217.54" y2="192.69"/><line class="cls-5" x1="217.48" y1="226.65" x2="217.48" y2="322"/><polygon class="cls-1" points="356.89 277.9 315.54 225.83 294.05 225.83 359.69 308.68 373.91 308.68 373.91 225.83 356.89 225.83 356.89 277.9"/><polygon class="cls-1" points="248.5 116.57 234.27 116.57 234.27 196.94 251.52 196.94 251.52 147.35 290.81 196.94 312.31 196.94 248.5 116.57"/><rect class="cls-1" x="353.65" y="116.57" width="17.02" height="80.36"/><rect class="cls-1" x="233.81" y="226.15" width="17.25" height="82.85"/></svg>
