<svg id="Layer_1" data-name="Layer 1" xmlns="http://www.w3.org/2000/svg" viewBox="0 0 450 506"><defs><style>.cls-1{fill:#ec6a00;}.cls-2{font-size:27.55px;fill:#1d5d00;stroke-width:0.75px;font-family:Montserrat-Regular, Montserrat;}.cls-2,.cls-5{stroke:#1d5d00;stroke-miterlimit:10;}.cls-3{letter-spacing:-0.01em;}.cls-4{letter-spacing:-0.01em;}.cls-5{fill:none;stroke-width:5px;}</style></defs><title>Artboard 3 copy</title><rect class="cls-1" x="49.64" y="254.45" width="17.25" height="82.85"/><polygon class="cls-1" points="172.26 306.52 130.91 254.45 109.41 254.45 175.05 337.3 189.28 337.3 189.28 254.45 172.26 254.45 172.26 306.52"/><polygon class="cls-1" points="63.86 145.19 49.64 145.19 49.64 225.56 66.89 225.56 66.89 175.97 106.17 225.56 127.67 225.56 63.86 145.19"/><rect class="cls-1" x="169.02" y="145.19" width="17.02" height="80.36"/><text class="cls-2" transform="translate(46.93 248.17)">N<tspan class="cls-3" x="22.4" y="0">E</tspan><tspan x="40.55" y="0">W NORDIC KI</tspan><tspan class="cls-4" x="229.79" y="0">T</tspan><tspan x="245.33" y="0">CHEN</tspan></text><line class="cls-5" x1="211.54" y1="136.99" x2="211.54" y2="220.69"/><line class="cls-5" x1="211.48" y1="254.65" x2="211.48" y2="350"/><polygon class="cls-1" points="356.89 305.9 315.54 253.83 294.05 253.83 359.69 336.68 373.91 336.68 373.91 253.83 356.89 253.83 356.89 305.9"/><polygon class="cls-1" points="248.5 144.57 234.27 144.57 234.27 224.94 251.52 224.94 251.52 175.35 290.81 224.94 312.31 224.94 248.5 144.57"/><rect class="cls-1" x="353.65" y="144.57" width="17.02" height="80.36"/><rect class="cls-1" x="233.81" y="254.15" width="17.25" height="82.85"/></svg>
